<?xml version="1.0" encoding="utf-8"?>
<!-- Generator: Adobe Illustrator 25.0.0, SVG Export Plug-In . SVG Version: 6.00 Build 0)  -->
<svg version="1.1" id="Layer_1" xmlns="http://www.w3.org/2000/svg" xmlns:xlink="http://www.w3.org/1999/xlink" x="0px" y="0px"
	 viewBox="0 0 32 20" style="enable-background:new 0 0 32 20;" xml:space="preserve">
<style type="text/css">
	.st0{fill-rule:evenodd;clip-rule:evenodd;fill:#000000;}
</style>
<path class="st0" d="M28.4,2.8c-1-1-2.6-1-3.5,0l-9.5,9.5L5.8,2.8c-1-1-2.6-1-3.5,0c-1,1-1,2.6,0,3.5l11.2,11.2c0,0,0.1,0.1,0.1,0.1
	c0.5,0.5,1.1,0.7,1.8,0.7c0.6,0,1.3-0.2,1.8-0.7c0,0,0.1-0.1,0.1-0.1L28.4,6.3C29.4,5.3,29.4,3.7,28.4,2.8z"/>
</svg>
